<?xml version="1.0" encoding="UTF-8"?>
<svg id="Layer_1" data-name="Layer 1" xmlns="http://www.w3.org/2000/svg" xmlns:xlink="http://www.w3.org/1999/xlink" viewBox="0 0 911.13 823.32">
  <defs>
    <style>
      .cls-1 {
        fill: #09b6a1;
      }

      .cls-2 {
        fill: #31b1df;
      }

      .cls-3 {
        fill: #34b0d1;
      }

      .cls-4 {
        fill: #51a8ed;
      }

      .cls-5 {
        fill: #07a9be;
      }

      .cls-6 {
        fill: #3da8db;
      }

      .cls-7 {
        fill: #3d8aef;
      }

      .cls-8 {
        fill: #33ace5;
      }

      .cls-9 {
        fill: #0ebfa3;
      }

      .cls-10 {
        fill: #39a6db;
      }

      .cls-11 {
        fill: #29b1d0;
      }

      .cls-12 {
        fill: #2dc4b1;
      }

      .cls-13 {
        fill: #36add7;
      }

      .cls-14 {
        fill: #39a6e0;
      }

      .cls-15 {
        fill: #0f9ed2;
      }

      .cls-16 {
        fill: #04a7bd;
      }

      .cls-17 {
        fill: #40abe0;
      }

      .cls-18 {
        fill: #02a8ba;
      }

      .cls-19 {
        fill: #2ca3d6;
      }

      .cls-20 {
        fill: #36acd6;
      }

      .cls-21 {
        fill: #38bad1;
      }

      .cls-22 {
        fill: #2fb6ce;
      }

      .cls-23 {
        fill: #22afc8;
      }

      .cls-24 {
        fill: #04b698;
      }

      .cls-25 {
        fill: #3aabe3;
      }

      .cls-26 {
        fill: #2aa1e1;
      }

      .cls-27 {
        fill: #3889ef;
      }

      .cls-28 {
        fill: #32bac8;
      }

      .cls-29 {
        fill: #03bb95;
      }

      .cls-30 {
        fill: #21aacd;
      }

      .cls-31 {
        fill: #21a1d4;
      }

      .cls-32 {
        fill: #33b0cf;
      }

      .cls-33 {
        fill: #3aaed8;
      }

      .cls-34 {
        fill: #07c293;
      }

      .cls-35 {
        fill: #3989f2;
      }

      .cls-36 {
        fill: #02bd91;
      }

      .cls-37 {
        fill: #35bfd0;
      }

      .cls-38 {
        fill: #33b3cf;
      }

      .cls-39 {
        fill: #3faee2;
      }

      .cls-40 {
        fill: #32b3ce;
      }

      .cls-41 {
        fill: #32b2ce;
      }

      .cls-42 {
        fill: #2abbde;
      }

      .cls-43 {
        fill: #39b3e0;
      }

      .cls-44 {
        fill: #30b0d2;
      }

      .cls-45 {
        fill: #33afd2;
      }

      .cls-46 {
        fill: #36b6d0;
      }

      .cls-47 {
        fill: #25b9c1;
      }

      .cls-48 {
        fill: #3daedb;
      }

      .cls-49 {
        fill: #3cb1d9;
      }

      .cls-50 {
        fill: #39aad8;
      }

      .cls-51 {
        fill: #39b3e3;
      }

      .cls-52 {
        fill: #219be3;
      }

      .cls-53 {
        fill: #2fb9c6;
      }

      .cls-54 {
        fill: #2fb6c9;
      }

      .cls-55 {
        fill: #2cb7d3;
      }

      .cls-56 {
        fill: #40abdc;
      }

      .cls-57 {
        fill: #36aed3;
      }

      .cls-58 {
        fill: #02b79d;
      }

      .cls-59 {
        fill: #2a9ce4;
      }

      .cls-60 {
        fill: #3ab0e0;
      }

      .cls-61 {
        fill: #2cc0da;
      }

      .cls-62 {
        fill: #35c3c2;
      }

      .cls-63 {
        fill: #30b7c8;
      }

      .cls-64 {
        fill: #21abca;
      }

      .cls-65 {
        fill: #4891f3;
      }

      .cls-66 {
        fill: #fefefe;
      }

      .cls-67 {
        fill: #23a8cf;
      }

      .cls-68 {
        fill: #2dbbc6;
      }

      .cls-69 {
        fill: url(#linear-gradient);
      }

      .cls-70 {
        fill: #82c0f0;
      }

      .cls-71 {
        fill: #02b99c;
      }

      .cls-72 {
        fill: #32bed2;
      }

      .cls-73 {
        fill: #22a1e0;
      }
    </style>
    <linearGradient id="linear-gradient" x1="-374.42" y1="1192.03" x2="396.62" y2="1662.03" gradientTransform="translate(448 -1052)" gradientUnits="userSpaceOnUse">
      <stop offset="0" stop-color="#2bcca3"/>
      <stop offset="1" stop-color="#6198f2"/>
    </linearGradient>
  </defs>
  <path class="cls-69" d="M279.1.28c6.64.68,13.36.63,20,0,2.26.17,4,.9,5,1,4.06-.07,8.06.26,12,1,16.27,1.26,27.3,4.33,42,7,1.78.71,3.45.71,5,0,1.89.3,5.11,1.49,7.24,2.07,58.55,15.99,112.24,50.53,170.55,67.64,18.12,5.32,37,7.93,55.21,11.29,2.44.75,4.77.75,7,0,7.45.79,13.43.9,21,1,6.96.89,14.05.92,21,0,20.68-.44,41.34-2.49,62-3,9.27.53,18.92.99,28,0,3.02.14,5.72.85,8,1,4.06-.13,8.06.21,12,1,58.38,5.86,90.24,32.87,117.8,82.7,7.39,13.35,20.43,39.34,22.2,54.3.19,1.83.86,3.17,2,4,2.61,8.98,5.9,22.84,7,32-.73,1.88-.73,3.88,0,6,3.91,14.61,5.13,36.51,6,52-.42,6.07-.42,12.07,0,18,.34,3.91.67,7.91,1,12-.05,7.83-.62,16.93-1,25l-1,5c-10.72,188.9-123.84,413.54-331,440-2.09-.37-4.09-.71-6-1-2.26.46-4.59,1.13-7,2-6.67.53-13.3.94-20,1-2.58-.84-5.42-.83-8,0-1.99-.04-4.01.1-6,0-3.25-1.54-6.92-1.87-11-1-67.23-6.84-123.21-39.3-175.93-78.54-12.49-9.3-24.14-20.41-36.82-29.43-68.18-48.49-156.73-36.63-225.49-86.07C27.09,588.87,3.33,505.96.1,441.28c.79-2.25.87-4.76,0-7-.02-.67.02-1.33,0-2,.37-4.14.7-8.14,1-12-.34-6.58-.67-13.24-1-20,.42-13.36,1.54-26.7,3-40,.66-1.08,1.33-2.08,2-3-.72-1.59-1.05-3.59-1-6C17.25,247.65,75.33,75.62,178.1,29.28c1.72-.77,3.05-1.77,4-3C210.68,11.36,246.84,1.95,279.1.28Z"/>
  <g>
    <path class="cls-5" d="M735.1,88.28c-1.04,1.66-3.79,1-5.49,1.02-7.22.08-15.64.75-22.51-1.02,9.01-.22,19.04-.41,28,0Z"/>
    <path class="cls-63" d="M645.1,91.28c-6.09,1.67-14.91,1.67-21,0,6.97.09,14.04.15,21,0Z"/>
    <path class="cls-36" d="M299.1.28c-5.73,1.67-14.19,1.68-20,0,6.03-.31,14.04-.44,20,0Z"/>
    <path class="cls-58" d="M1.1,420.28c-.28.87-.62.86-1,0-.03-6.63-.21-13.37,0-20,1.82,6.02,1.03,13.61,1,20Z"/>
    <path class="cls-59" d="M911.1,339.28c-.28.87-.62.86-1,0-.01-.23-.99-1.6-1.07-3.38-.21-4.36-.54-10.58,1.07-14.62.31,5.55.93,12.88,1,18Z"/>
    <path class="cls-27" d="M520.1,822.28c3.05-2.2,8.22-.5,12-.99l-1,1.99c-3.28-.17-7.62-.66-11-1Z"/>
    <path class="cls-29" d="M316.1,2.28c-4.05-.31-8.19-.62-12-1,3.79.5,8.96-1.2,12,1Z"/>
    <path class="cls-16" d="M755.1,90.28c-3.81-.38-8.45-.77-12-1,3.79.5,8.96-1.2,12,1Z"/>
    <path class="cls-70" d="M911.1,351.28c-2.01-3.05-.76-8.15-1-12h1c.06,3.99.03,8.01,0,12Z"/>
    <path class="cls-1" d="M.1,432.28c-.11-3.98.02-8.01,0-12h1c-.01,3.78.84,9.02-1,12Z"/>
    <path class="cls-65" d="M572.1,820.28c.87.28.86.62,0,1-2.3.24-4.38.79-7,1,1.6-2.45,4.54-1.91,7-2Z"/>
    <path class="cls-7" d="M545.1,823.28c-2.66.02-5.34.05-8,0,1.54-1.67,6.42-1.68,8,0Z"/>
    <path class="cls-18" d="M603.1,90.28c-2.03,2.7-5.38.3-7,0,2.29.16,4.75-.24,7,0Z"/>
    <path class="cls-71" d="M5.1,357.28l-2-1c.15-1.31.76-3.11,1-5,1.63,1.06,1.04,4.14,1,6Z"/>
    <path class="cls-12" d="M.1,441.28c-.12-2.32.08-4.68,0-7,1.65,1.26,1.65,5.74,0,7Z"/>
    <path class="cls-34" d="M182.1,26.28c.66,2.9-2.2,2.19-4,3,.73-1.83,2.48-2.21,4-3Z"/>
    <path class="cls-35" d="M578.1,821.28c-1.88.24-4.08-.2-6,0v-1c1.85-.06,4.95-.61,6,1Z"/>
    <path class="cls-4" d="M909.1,381.28c.06-1.6-.62-4.15,1-5-.1,2.16-.98,4.63-1,5Z"/>
    <path class="cls-24" d="M363.1,9.28c-1.44,2.67-4.17.15-5,0,1.6.17,3.48-.24,5,0Z"/>
    <g>
      <path class="cls-9" d="M5.1,357.28c-.03,1.33.03,2.67-.01,4l-1.99-1c.14-1.31-.15-2.7,0-4,1.17-2.21,1.63-1.09,2,1Z"/>
      <path class="cls-52" d="M904.1,269.28c-.42-1.58-2.58-4.2,0-6,.23,1.9-.16,4.05,0,6Z"/>
      <path class="cls-26" d="M897.1,231.28c-3.16.62-1.71-1.56-2-4,1.05,1.07,1.59,2.6,2,4Z"/>
      <path class="cls-17" d="M644.1,460.28c.43,1.56.76,2.23,1,2,1.3,3.98,3.16,7.86,4,12-1.32-.58-3.76,1.53-3.01-3.02l-1.99,1.02c-.74-.98,3.53-3.7-2.01-3.04,1.38-2.67-1.44-7.38,2-8.96Z"/>
      <path class="cls-31" d="M601.1,475.28l2.01-1.49c-1.25,5.77-1.09,11.6-1.02,17.48-1.85-.2-.96-4.55-.99-5.99-.07-3.32-.04-6.68,0-10Z"/>
      <path class="cls-73" d="M645.1,462.28c-.68,4.42-.89,1.11-1-2-.01-.33.01-.67,0-1,1.36.67.72,2.15,1,3Z"/>
      <g>
        <path class="cls-66" d="M787.1,207.28c.75,1.67.8,3.37,0,5,.08,13.05.41,25.72,1,38,.01,30.32,0,60.68,0,91,.23,22.56.56,44.56,1,66-.46,34.49-1.28,62.19-28.99,86.51-25.39,22.29-73.2,24.58-97.91-.11-4.12-4.12-12.02-18.93-13.1-19.4-2.89-2.51-5.86-8.06-4-12-.41-.82-.75-1.82-1-3-.06-1.99.02-4,0-6-.87-5.3-.95-10.72,0-16,4.59-36.78,43.67-64.99,80.2-52.7,5.12,1.72,11.74,7.78,17.8,5.7.93-2.22.77-4.76,0-7,0-18.65,0-37.35,0-56-.68-1.5-.94-3.73,0-5l-.88-73.74-1.12-.26c-32.11,19.03-79.23,24.67-116.5,29.99-2.2.31-4.6-.35-6.77.05-2.69.5-4.31,9.93-4.61,12.58-1.11,9.91-1,21.35-1.12,31.38l-1,6c-.05,3.32.03,6.67,0,10l-1,8c-.03,2.99.03,6.01,0,9l-1,7c-.23,19.75-2.75,39.27-3,59l-1,6c-.05,3.33.04,6.67,0,10l-1,6c-.04,2.99,0,6.01,0,9-.39,2.41-.72,4.74-1,7,.78,3.17.74,6.82,0,10-1.68,1.09-.98,4.11-1,6,1.14,3.14.64,6.74,0,10-1.89,4.84-.93,11.56-1,17l-1,6c-.04,2.66.03,5.34,0,8l-1,7c-.12,10.26-.5,34.18-4.97,42.53-5.55,10.38-20.35,16.83-31.03,17.47l-7,1c-1.64.04-3.37.11-5,0l-5-1c-19.68-3.52-26.4-12.62-29-32-.92-5.64-.84-11.34,0-17-.01-3.73-.09-7.96,0-12l1-6c.05-3.33-.04-6.67,0-10l1-6c.18-7.68.91-15.26,1-23l1-6c.13-8.34.9-16.61,1-25l1-6c.04-2.99-.03-6.01,0-9l1-7c.03-2.99-.03-6.01,0-9l1-7c.04-3.33-.03-6.67,0-10l1-7c.37-31.11,4.7-62.45,6.04-93.46.14-3.24.59-12.37,0-14.85-.14-.6-2.2-1.69-2.54-1.69h-68c-.69,0-7.97,5.62-8.51,6.7-.84,1.7-1.48,5.12-1.71,7.08-2.08,17.68-3.08,39.35-3.28,57.22l-1,6c-.05,3.66.05,7.34,0,11l-1,6c-.05,3.33.03,6.67,0,10l-1,7c-.43,15.95-2.83,31.86-3,48l-1,6c-.04,2.66.04,5.34,0,8l-1,6c-.12,7.37-.92,14.59-1,22l-1,6c-.05,3.31.2,6.71,0,10l-1,5c-.45,7.03-.93,13.93-1,21l-1,6c-.61,25.56-10.07,47.03-36.55,53.43-44.24,10.7-64.43-14.46-82.74-47.69-20.32-36.87-38.38-74.43-58.43-111.48-9.88-18.25-22.26-44.33-33.94-60.65-.5-.7-.21-2.19-.46-2.42-.42-.38-3.59-.33-3.81-.14-1.31,1.18-1.04,16.88-1.06,19.95l-1,8c-.09,12.34-.91,24.63-1,37l-1,8c-.19,24.18-2.06,48.41-3.04,72.46-.86,21.21,2.56,47.05-10.52,65.48-9.49,13.37-33.77,16.23-48.65,12.77-18.14-4.22-23.74-14.9-23.79-32.71l1-7c.04-3.66-.02-7.34,0-11l1-9c.03-3.66-.05-7.34,0-11l1-6c.45-32.08,3.8-64,4-96l1-9c.03-3.66-.02-7.34,0-11l1-10c.02-3.33-.02-6.67,0-10l1-9c.17-24.03,2.85-47.99,3-72l1-9c.06-12.5.08-37.37,4.12-48.38,7.4-20.18,46.9-24.17,65.37-22.6,28.99,2.45,35.28,24.55,46.97,46.03,21.9,40.23,43.37,79.59,64.94,120.06,10.51,19.73,20.31,39.94,30.84,59.65,2.32,1.49,5.32,2.16,5.76-1.26.85-16.15,1.17-32.36,2-48.49l1-5c.21-4.3-.23-8.7,0-13l1-5c.16-3.64-.05-7.35,0-11l1-6c.05-3.66-.04-7.34,0-11l1-7c.42-23.67,2.05-80.58,13.37-99.65,15.02-25.28,57.29-27.32,83.63-29.35l5-1c3.63-.2,7.36.03,11,0l8-1c7.32-.06,14.68,0,22,0,23.59-.17,46.59-.5,69-1,5.32,0,10.68.02,16,0l11-1c2.99-.01,6.01.03,9,0l7-1c2.31-.05,4.7.17,7,0l5-1c33.18-2.93,69.04-10.64,99.69-23.81,9.51-4.09,34.18-19.44,42.57-18.94,10.28.61,11.21,9.87,11.79,18.21.82,11.85-.09,25.46-.04,37.54Z"/>
        <path class="cls-60" d="M740.1,248.28c.31-.19.12-1.56,1.99-.99,0,24.98,0,50.01,0,74.99-.28.87-.62.86-1,0-.45-22.8.26-45.69.02-68.51-.02-1.69.64-4.45-1.02-5.49Z"/>
        <path class="cls-22" d="M578.1,197.28c-1.04,1.66-3.79,1-5.49,1.02-21.16.22-42.36-.03-63.51-.02,1.04-1.66,3.79-1,5.49-1.02,21.16-.26,42.37.03,63.51.02Z"/>
        <path class="cls-10" d="M789.1,407.28c-1.66-1.04-1-3.79-1.02-5.49-.21-20.16.02-40.36.02-60.51,1.66,1.04,1,3.8,1.02,5.49.25,20.13.25,40.4-.02,60.51Z"/>
        <path class="cls-67" d="M788.1,250.28c-1.66-1.04-1-3.8-1.02-5.49-.11-10.83.02-21.69.02-32.51.28-.87.62-.86,1,0,.25,12.63,0,25.36,0,38Z"/>
        <path class="cls-56" d="M516.1,551.28c-.06-.48-.91-1.58-1.07-3.38-.34-3.77-.44-10.1,1.07-13.62.02,5.65-.01,11.35,0,17Z"/>
        <path class="cls-39" d="M644.1,453.28c-1.52-2.9-1.37-9.07-1.07-12.62.15-1.8,1.02-2.94,1.07-3.38.04,5.32-.05,10.68,0,16Z"/>
        <path class="cls-15" d="M603.1,459.28c-.03,4.32.03,8.67-.01,12.99-1.68.26-.94-1.88-.99-2.99-.16-3.29-.03-6.7,0-10,.28-.87.62-.86,1,0Z"/>
        <path class="cls-11" d="M605.1,196.28c-2.63,1.84-7.54.98-11,1,2.64-1.84,7.54-.98,11-1Z"/>
        <path class="cls-61" d="M136.1,392.28c.02-3.14-.83-7.7,1-10-.02,3.14.83,7.7-1,10Z"/>
        <path class="cls-37" d="M137.1,372.28c.02-2.82-.81-7.03,1-9-.02,2.82.81,7.03-1,9Z"/>
        <path class="cls-62" d="M141.1,291.28c.02-2.82-.81-7.03,1-9-.01,2.82.81,7.03-1,9Z"/>
        <path class="cls-72" d="M135.1,412.28c.02-2.82-.81-7.03,1-9-.02,2.82.81,7.03-1,9Z"/>
        <path class="cls-42" d="M129.1,534.28c.02-2.82-.81-7.03,1-9-.02,2.82.81,7.03-1,9Z"/>
        <path class="cls-53" d="M487.1,198.28c-1.66,1.78-5.5.98-8,1,1.66-1.78,5.5-.98,8-1Z"/>
        <path class="cls-44" d="M609.1,346.28c.02-2.5-.78-6.34,1-8-.02,2.5.78,6.34-1,8Z"/>
        <path class="cls-68" d="M214.1,434.28c.02-2.5-.78-6.34,1-8-.02,2.5.78,6.34-1,8Z"/>
        <path class="cls-47" d="M216.1,389.28c.02-2.5-.78-6.34,1-8-.02,2.5.78,6.34-1,8Z"/>
        <path class="cls-40" d="M621.1,195.28c-1.36,1.74-4.81.98-7,1,1.37-1.75,4.8-.96,7-1Z"/>
        <path class="cls-21" d="M365.1,336.28c.02-2.19-.74-5.64,1-7-.04,2.2.75,5.63-1,7Z"/>
        <path class="cls-45" d="M608.1,362.28c.03-2.19-.74-5.64,1-7-.02,2.19.74,5.64-1,7Z"/>
        <path class="cls-51" d="M522.1,431.28c.02-2.19-.74-5.64,1-7-.02,2.19.74,5.64-1,7Z"/>
        <path class="cls-25" d="M742.1,390.28v-7c1.67,1.3,1.61,6.45,0,7Z"/>
        <path class="cls-23" d="M444.1,392.28c.06-2.2-.77-5.62,1-7-.02,2.19.74,5.64-1,7Z"/>
        <path class="cls-2" d="M524.1,398.28c.02-2.19-.74-5.64,1-7-.03,2.19.74,5.64-1,7Z"/>
        <path class="cls-43" d="M523.1,415.28c.02-2.19-.74-5.64,1-7-.02,2.19.74,5.64-1,7Z"/>
        <path class="cls-50" d="M603.1,459.28h-1c.02-2.19-.74-5.64,1-7,0,2.33.02,4.67,0,7Z"/>
        <path class="cls-19" d="M598.1,523.28c.03-2.19-.74-5.64,1-7-.02,2.19.74,5.64-1,7Z"/>
        <path class="cls-55" d="M128.1,552.28c0-2.18-.72-5.65,1-7-.02,2.19.74,5.64-1,7Z"/>
        <path class="cls-14" d="M562.1,583.28c-1.93,1.65-4.63.95-7,1,1.4-1.82,4.79-.87,7-1Z"/>
        <path class="cls-21" d="M364.1,353.28c.02-1.89-.68-4.91,1-6-.03,1.89.68,4.91-1,6Z"/>
        <path class="cls-54" d="M446.1,358.28c.03-1.89-.68-4.91,1-6-.02,1.89.68,4.92-1,6Z"/>
        <path class="cls-13" d="M603.1,443.28c.03-1.89-.68-4.91,1-6-.02,1.89.68,4.91-1,6Z"/>
        <path class="cls-41" d="M440.1,446.28c.03-1.89-.68-4.91,1-6-.02,1.89.67,4.92-1,6Z"/>
        <path class="cls-49" d="M521.1,446.28c.02-1.89-.68-4.91,1-6-.03,1.89.68,4.91-1,6Z"/>
        <path class="cls-54" d="M445.1,375.28c.03-1.89-.68-4.91,1-6-.02,1.89.68,4.91-1,6Z"/>
        <path class="cls-64" d="M439.1,460.28c.03-1.89-.68-4.91,1-6-.03,1.89.68,4.91-1,6Z"/>
        <path class="cls-32" d="M610.1,328.28c.03-1.89-.68-4.91,1-6-.02,1.89.68,4.91-1,6Z"/>
        <path class="cls-33" d="M519.1,477.28c.02-1.89-.68-4.91,1-6-.03,1.89.68,4.91-1,6Z"/>
        <path class="cls-3" d="M437.1,488.28c.03-1.89-.68-4.91,1-6-.02,1.89.67,4.91-1,6Z"/>
        <path class="cls-48" d="M517.1,506.28c.02-1.89-.68-4.91,1-6-.04,1.89.69,4.91-1,6Z"/>
        <path class="cls-6" d="M599.1,508.28c.03-1.89-.68-4.91,1-6-.02,1.89.68,4.91-1,6Z"/>
        <path class="cls-28" d="M130.1,514.28c.02-1.89-.68-4.91,1-6-.03,1.89.68,4.91-1,6Z"/>
        <path class="cls-48" d="M516.1,522.28c.04-1.89-.69-4.91,1-6-.03,1.89.68,4.91-1,6Z"/>
        <path class="cls-57" d="M434.1,530.28c.04-1.89-.69-4.9,1-6-.02,1.89.67,4.91-1,6Z"/>
        <path class="cls-20" d="M604.1,427.28c.03-1.89-.68-4.91,1-6-.02,1.89.68,4.91-1,6Z"/>
        <path class="cls-8" d="M742.1,327.28c-1.6-.84-.97-3.39-1-5h1v5Z"/>
        <path class="cls-30" d="M788.1,212.28h-1c0-1.67,0-3.33,0-5,1.6.84.97,3.39,1,5Z"/>
        <path class="cls-3" d="M436.1,503.28c.06-1.6-.62-4.15,1-5-.13,2.12-.97,4.57-1,5Z"/>
        <path class="cls-46" d="M362.1,387.28c.11-2.09.99-4.72,1-5-.06,1.6.62,4.15-1,5Z"/>
        <path class="cls-53" d="M468.1,199.28c-.85,1.62-3.4.94-5,1,.57-.04,2.78-.88,5-1Z"/>
        <path class="cls-38" d="M633.1,194.28c-.85,1.62-3.4.94-5,1,.5-.04,3.02-.82,5-1Z"/>
        <path class="cls-21" d="M363.1,369.28c.11-2.07.99-4.74,1-5-.06,1.6.62,4.15-1,5Z"/>
        <path class="cls-14" d="M550.1,584.28c-2.53-.17-3.31-.7-5-1,1.6.06,4.15-.62,5,1Z"/>
      </g>
    </g>
  </g>
</svg>